<?xml version="1.0" standalone="no"?>
<!DOCTYPE svg PUBLIC "-//W3C//DTD SVG 20010904//EN"
        "http://www.w3.org/TR/2001/REC-SVG-20010904/DTD/svg10.dtd">
<svg version="1.0" xmlns="http://www.w3.org/2000/svg"
     width="500.000000pt" height="500.000000pt" viewBox="0 0 500.000000 500.000000"
     preserveAspectRatio="xMidYMid meet">
    <metadata>
        Created by potrace 1.14, written by Peter Selinger 2001-2017
    </metadata>
    <g transform="translate(0.000000,500.000000) scale(0.100000,-0.100000)"
       fill="#000000" stroke="none">
        <path d="M2460 4876 c0 -2 -36 -102 -80 -223 -45 -120 -83 -225 -85 -233 -4
-19 -52 -148 -65 -175 -5 -11 -20 -51 -33 -90 -14 -38 -29 -81 -35 -95 -6 -14
-24 -65 -42 -115 -17 -49 -35 -99 -40 -110 -8 -16 -42 -112 -54 -150 -2 -5 -6
-17 -9 -25 -3 -8 -29 -78 -58 -155 -28 -77 -65 -178 -82 -225 -17 -47 -36 -88
-42 -92 -5 -4 -7 -8 -3 -8 6 0 -21 -89 -41 -135 -5 -11 -34 -92 -66 -180 -31
-88 -59 -167 -62 -175 -30 -80 -52 -145 -49 -148 2 -2 441 -4 975 -5 794 -2
971 0 971 11 0 7 4 10 10 7 6 -3 7 1 4 10 -4 8 -2 21 3 28 5 6 15 32 23 57 7
25 17 49 22 54 4 6 8 19 8 31 0 12 4 25 9 31 4 5 20 43 34 84 14 41 41 118 60
171 l35 96 -159 -2 c-87 0 -159 3 -159 8 0 4 -6 5 -12 0 -17 -10 -288 -11
-295 0 -2 4 -10 4 -16 0 -16 -10 -178 -10 -184 0 -2 4 -10 4 -16 0 -16 -10
-297 -10 -297 0 0 5 -5 5 -12 1 -6 -4 -42 -8 -79 -9 -54 -1 -68 2 -71 15 -2 8
-3 405 -3 883 1 477 -1 867 -2 867 -2 0 -3 -2 -3 -4z"/>
        <path d="M2595 4080 c-3 -5 -1 -10 4 -10 6 0 11 5 11 10 0 6 -2 10 -4 10 -3 0
-8 -4 -11 -10z"/>
        <path d="M2796 3162 c-3 -5 1 -9 9 -9 8 0 12 4 9 9 -3 4 -7 8 -9 8 -2 0 -6 -4
-9 -8z"/>
        <path d="M1700 2454 c0 -6 -23 -11 -57 -11 -32 -1 -65 -1 -74 -2 -13 -1 -51
-73 -54 -101 0 -3 -5 -18 -12 -35 -6 -16 -25 -66 -41 -110 -16 -44 -33 -89
-37 -100 -5 -11 -9 -22 -10 -25 -7 -25 -18 -59 -25 -75 -5 -11 -18 -43 -28
-72 l-19 -51 26 -4 c14 -1 121 -3 236 -2 138 0 213 -3 217 -10 5 -8 8 -8 8 -1
0 14 199 14 219 1 9 -6 12 -5 7 2 -4 7 18 10 69 9 43 -1 75 -6 75 -12 0 -5 4
-5 8 2 9 15 113 13 124 -2 5 -6 8 -6 8 1 0 12 177 14 196 2 6 -4 14 -4 18 -1
10 11 76 11 76 1 0 -5 4 -7 8 -4 5 3 8 -31 8 -74 0 -53 -3 -77 -10 -73 -7 4
-7 2 0 -8 15 -18 15 -109 0 -109 -8 0 -8 -2 0 -8 14 -9 15 -734 1 -725 -6 4
-7 1 -1 -8 13 -21 13 -221 0 -238 -8 -10 -8 -13 0 -8 8 4 11 -66 10 -243 -1
-234 4 -289 19 -223 14 64 142 393 150 386 4 -4 5 -2 1 5 -7 11 9 62 55 177 7
17 13 35 15 40 14 56 72 194 79 188 4 -5 5 -3 1 4 -4 7 18 79 48 160 30 81 57
159 61 173 4 14 11 30 16 36 5 6 10 19 12 30 2 10 9 30 14 44 6 14 21 55 34
92 12 37 26 65 30 63 4 -3 5 3 2 13 -2 11 2 26 11 34 8 9 13 18 11 20 -8 8 26
98 37 98 5 0 6 4 3 10 -3 5 5 38 19 72 13 35 30 80 37 101 7 20 16 37 21 37 4
0 5 6 2 14 -3 7 3 33 14 57 11 24 31 76 45 114 81 223 94 254 101 248 4 -4 4
-1 1 8 -3 8 1 31 9 50 l14 34 -126 -1 c-76 0 -133 4 -141 10 -11 8 -13 8 -7
-1 4 -8 1 -13 -8 -13 -9 0 -16 6 -16 13 0 8 -3 8 -8 1 -10 -14 -404 -14 -414
1 -5 7 -8 7 -8 0 0 -6 -11 -12 -26 -13 -17 -1 -23 2 -18 10 5 7 3 8 -7 2 -20
-13 -539 -12 -539 1 0 7 -3 7 -8 0 -11 -16 -52 -18 -52 -3 0 9 -3 9 -8 2 -9
-13 -105 -13 -114 1 -5 7 -8 7 -8 -1 0 -14 -282 -14 -292 1 -5 7 -8 7 -8 -1z"/>
        <path d="M1806 1802 c-2 -4 4 -8 14 -8 10 0 16 4 14 8 -3 4 -9 8 -14 8 -5 0
-11 -4 -14 -8z"/>
    </g>
</svg>
